<svg class="animated" id="freepik_stories-windows" xmlns="http://www.w3.org/2000/svg" viewBox="0 0 500 500" version="1.1" xmlns:xlink="http://www.w3.org/1999/xlink" xmlns:svgjs="http://svgjs.com/svgjs"><style>svg#freepik_stories-windows:not(.animated) .animable {opacity: 0;}svg#freepik_stories-windows.animated #freepik--Windows--inject-3 {animation: 1.5s Infinite  linear floating;animation-delay: 0s;}            @keyframes floating {                0% {                    opacity: 1;                    transform: translateY(0px);                }                50% {                    transform: translateY(-10px);                }                100% {                    opacity: 1;                    transform: translateY(0px);                }            }        </style><g id="freepik--background-complete--inject-3" class="animable" style="transform-origin: 250px 225.795px;"><rect y="382.4" width="500" height="0.25" style="fill: rgb(235, 235, 235); transform-origin: 250px 382.525px;" id="el2etgwdfibaj" class="animable"></rect><rect x="288.4" y="396.34" width="33.12" height="0.25" style="fill: rgb(235, 235, 235); transform-origin: 304.96px 396.465px;" id="el5wext2ccmrf" class="animable"></rect><rect x="407.08" y="393.63" width="8.69" height="0.25" style="fill: rgb(235, 235, 235); transform-origin: 411.425px 393.755px;" id="elelacauv1cwj" class="animable"></rect><rect x="327.67" y="389.21" width="68.92" height="0.25" style="fill: rgb(235, 235, 235); transform-origin: 362.13px 389.335px;" id="el11ibhgoe6r7j" class="animable"></rect><rect x="194.84" y="395.11" width="30.3" height="0.25" style="fill: rgb(235, 235, 235); transform-origin: 209.99px 395.235px;" id="elqtg26yuwjf" class="animable"></rect><rect x="166.72" y="395.11" width="19.22" height="0.25" style="fill: rgb(235, 235, 235); transform-origin: 176.33px 395.235px;" id="el29w11732jl1" class="animable"></rect><rect x="52.46" y="390.89" width="46.84" height="0.25" style="fill: rgb(235, 235, 235); transform-origin: 75.88px 391.015px;" id="elxcfgr671uy" class="animable"></rect><path d="M237,337.8H43.91a5.71,5.71,0,0,1-5.7-5.71V60.66A5.71,5.71,0,0,1,43.91,55H237a5.71,5.71,0,0,1,5.71,5.71V332.09A5.71,5.71,0,0,1,237,337.8ZM43.91,55.2a5.46,5.46,0,0,0-5.45,5.46V332.09a5.46,5.46,0,0,0,5.45,5.46H237a5.47,5.47,0,0,0,5.46-5.46V60.66A5.47,5.47,0,0,0,237,55.2Z" style="fill: rgb(235, 235, 235); transform-origin: 140.46px 196.4px;" id="el1z4skfbyl8jh" class="animable"></path><path d="M453.31,337.8H260.21a5.72,5.72,0,0,1-5.71-5.71V60.66A5.72,5.72,0,0,1,260.21,55h193.1A5.71,5.71,0,0,1,459,60.66V332.09A5.71,5.71,0,0,1,453.31,337.8ZM260.21,55.2a5.47,5.47,0,0,0-5.46,5.46V332.09a5.47,5.47,0,0,0,5.46,5.46h193.1a5.47,5.47,0,0,0,5.46-5.46V60.66a5.47,5.47,0,0,0-5.46-5.46Z" style="fill: rgb(235, 235, 235); transform-origin: 356.75px 196.4px;" id="elwyv7vupvwkc" class="animable"></path><path d="M438.68,169.11a4.13,4.13,0,0,0-4.12-4.12H306.22a4.13,4.13,0,0,0-4.12,4.12v13.26H438.68Z" style="fill: rgb(230, 230, 230); transform-origin: 370.39px 173.68px;" id="el1tpf0xr1yeh" class="animable"></path><path d="M408.48,173.68a3.12,3.12,0,1,1-3.11-3.11A3.12,3.12,0,0,1,408.48,173.68Z" style="fill: rgb(255, 255, 255); transform-origin: 405.36px 173.69px;" id="elp8ed3l83j9b" class="animable"></path><path d="M419.52,173.68a3.12,3.12,0,1,1-3.12-3.11A3.12,3.12,0,0,1,419.52,173.68Z" style="fill: rgb(255, 255, 255); transform-origin: 416.4px 173.69px;" id="el6hry14hisv2" class="animable"></path><circle cx="427.44" cy="173.68" r="3.12" style="fill: rgb(255, 255, 255); transform-origin: 427.44px 173.68px;" id="elorss7cmrmif" class="animable"></circle><path d="M306.22,271.69H434.56a4.13,4.13,0,0,0,4.12-4.12v-85.2H302.1v85.2A4.13,4.13,0,0,0,306.22,271.69Z" style="fill: rgb(240, 240, 240); transform-origin: 370.39px 227.03px;" id="elv4czbctqujg" class="animable"></path><path d="M449.1,200.3a4.13,4.13,0,0,0-4.12-4.12H316.64a4.13,4.13,0,0,0-4.12,4.12v13.26H449.1Z" style="fill: rgb(240, 240, 240); transform-origin: 380.81px 204.87px;" id="el4aro4buznhy" class="animable"></path><path d="M418.91,204.87a3.12,3.12,0,1,1-3.12-3.12A3.12,3.12,0,0,1,418.91,204.87Z" style="fill: rgb(230, 230, 230); transform-origin: 415.79px 204.87px;" id="el0apg02bl6v8c" class="animable"></path><path d="M429.94,204.87a3.12,3.12,0,1,1-3.11-3.12A3.12,3.12,0,0,1,429.94,204.87Z" style="fill: rgb(230, 230, 230); transform-origin: 426.82px 204.87px;" id="el07tqnuedzx4h" class="animable"></path><path d="M441,204.87a3.12,3.12,0,1,1-3.11-3.12A3.12,3.12,0,0,1,441,204.87Z" style="fill: rgb(230, 230, 230); transform-origin: 437.88px 204.87px;" id="elwlyw7aqfcj" class="animable"></path><path d="M316.64,302.88H445a4.13,4.13,0,0,0,4.12-4.12v-85.2H312.52v85.2A4.13,4.13,0,0,0,316.64,302.88Z" style="fill: rgb(250, 250, 250); transform-origin: 380.82px 258.22px;" id="elv7yo680gcr9" class="animable"></path><path d="M49.66,73.41a3.92,3.92,0,0,1,3.91-3.9H222a3.92,3.92,0,0,1,3.91,3.9V86H49.66Z" style="fill: rgb(224, 224, 224); transform-origin: 137.785px 77.755px;" id="elpxevapl3pbd" class="animable"></path><path d="M81.26,81a3.21,3.21,0,1,1,3.21-3.21A3.21,3.21,0,0,1,81.26,81Zm0-5.91a2.7,2.7,0,1,0,2.7,2.7A2.7,2.7,0,0,0,81.26,75.05Z" style="fill: rgb(255, 255, 255); transform-origin: 81.26px 77.79px;" id="el277bgfdpkn3" class="animable"></path><path d="M70.79,81A3.21,3.21,0,1,1,74,77.75,3.21,3.21,0,0,1,70.79,81Zm0-5.91a2.7,2.7,0,1,0,2.7,2.7A2.7,2.7,0,0,0,70.79,75.05Z" style="fill: rgb(255, 255, 255); transform-origin: 70.7903px 77.79px;" id="elp71k96f83bb" class="animable"></path><path d="M60.32,81a3.21,3.21,0,1,1,3.21-3.21A3.21,3.21,0,0,1,60.32,81Zm0-5.91a2.7,2.7,0,1,0,2.7,2.7A2.7,2.7,0,0,0,60.32,75.05Z" style="fill: rgb(255, 255, 255); transform-origin: 60.32px 77.79px;" id="el39s2wa0a4kv" class="animable"></path><path d="M53.57,190.56H222a3.92,3.92,0,0,0,3.91-3.91V86H49.66V186.65A3.92,3.92,0,0,0,53.57,190.56Z" style="fill: rgb(235, 235, 235); transform-origin: 137.785px 138.28px;" id="el7eb6l4twz2q" class="animable"></path><path d="M91.91,99.81a3.92,3.92,0,0,1,3.91-3.9h168.4a3.92,3.92,0,0,1,3.91,3.9v12.58H91.91Z" style="fill: rgb(250, 250, 250); transform-origin: 180.02px 104.15px;" id="ell5vb6sd7ccq" class="animable"></path><path d="M123.51,107.36a3.21,3.21,0,1,1,3.21-3.21A3.21,3.21,0,0,1,123.51,107.36Zm0-5.91a2.7,2.7,0,1,0,2.7,2.7A2.7,2.7,0,0,0,123.51,101.45Z" style="fill: rgb(230, 230, 230); transform-origin: 123.51px 104.15px;" id="elohr9as4v1ms" class="animable"></path><path d="M113,107.36a3.21,3.21,0,1,1,3.21-3.21A3.21,3.21,0,0,1,113,107.36Zm0-5.91a2.7,2.7,0,1,0,2.7,2.7A2.7,2.7,0,0,0,113,101.45Z" style="fill: rgb(230, 230, 230); transform-origin: 113px 104.15px;" id="elqlozsk0japm" class="animable"></path><path d="M102.57,107.36a3.21,3.21,0,1,1,3.21-3.21A3.21,3.21,0,0,1,102.57,107.36Zm0-5.91a2.7,2.7,0,1,0,2.7,2.7A2.7,2.7,0,0,0,102.57,101.45Z" style="fill: rgb(230, 230, 230); transform-origin: 102.57px 104.15px;" id="el0wqb262tsfcj" class="animable"></path><path d="M95.82,236.81h168.4a3.92,3.92,0,0,0,3.91-3.91V112.39H91.91V232.9A3.92,3.92,0,0,0,95.82,236.81Z" style="fill: rgb(245, 245, 245); transform-origin: 180.02px 174.6px;" id="el0wzts0r368sm" class="animable"></path><rect x="288.4" y="121.29" width="62" height="12.35" rx="1.3" style="fill: rgb(230, 230, 230); transform-origin: 319.4px 127.465px;" id="elyylwc5h001" class="animable"></rect><path d="M393.24,100.35,289.7,101a1.3,1.3,0,0,0-1.3,1.3l0,9.76a1.31,1.31,0,0,0,1.31,1.29l103.54-.65a1.3,1.3,0,0,0,1.29-1.3l0-9.76A1.29,1.29,0,0,0,393.24,100.35Z" style="fill: rgb(240, 240, 240); transform-origin: 341.47px 106.85px;" id="elbbyfnorvzui" class="animable"></path><rect x="288.4" y="80.05" width="83.44" height="12.35" rx="1.3" style="fill: rgb(240, 240, 240); transform-origin: 330.12px 86.225px;" id="elazkr7e23i6q" class="animable"></rect><rect x="60.8" y="280.11" width="21.85" height="8.2" rx="0.63" style="fill: rgb(230, 230, 230); transform-origin: 71.725px 284.21px;" id="elkqq27ueclnc" class="animable"></rect><path d="M97.75,266.57,61.26,267c-.26,0-.46.39-.46.86v6.48c0,.47.21.86.46.86l36.5-.44c.25,0,.46-.39.46-.86l0-6.48C98.21,267,98,266.57,97.75,266.57Z" style="fill: rgb(240, 240, 240); transform-origin: 79.51px 270.885px;" id="elaid56nvjcm" class="animable"></path><rect x="60.8" y="253.47" width="29.41" height="8.2" rx="0.63" style="fill: rgb(240, 240, 240); transform-origin: 75.505px 257.57px;" id="elhy2lpnaxx9i" class="animable"></rect><path d="M97.75,306.54,61.26,307c-.26,0-.46.39-.46.86v6.48c0,.47.21.86.46.86l36.5-.44c.25,0,.46-.39.46-.86l0-6.48C98.21,306.93,98,306.54,97.75,306.54Z" style="fill: rgb(240, 240, 240); transform-origin: 79.51px 310.87px;" id="elrfdzophpqi" class="animable"></path><rect x="60.8" y="293.44" width="29.41" height="8.2" rx="0.63" style="fill: rgb(240, 240, 240); transform-origin: 75.505px 297.54px;" id="eldjh4buxoz78" class="animable"></rect></g><g id="freepik--Shadow--inject-3" class="animable" style="transform-origin: 250px 416.24px;"><ellipse id="freepik--path--inject-3" cx="250" cy="416.24" rx="193.89" ry="11.32" style="fill: rgb(245, 245, 245); transform-origin: 250px 416.24px;" class="animable"></ellipse></g><g id="freepik--Windows--inject-3" class="animable animator-active" style="transform-origin: 322.41px 201.76px;"><rect x="250.54" y="83.11" width="188.86" height="187.92" style="fill: rgb(64, 123, 255); transform-origin: 344.97px 177.07px;" id="el20bsux10z2w" class="animable"></rect><g id="el8f8tj1ifgre"><rect x="250.54" y="92.46" width="61.65" height="35.37" style="opacity: 0.1; transform-origin: 281.365px 110.145px;" class="animable"></rect></g><g id="el4i65gsulr8a"><rect x="250.54" y="163.2" width="61.65" height="35.37" style="opacity: 0.2; transform-origin: 281.365px 180.885px;" class="animable"></rect></g><g id="el8wxaqetj3rr"><rect x="250.54" y="198.57" width="61.65" height="35.37" style="opacity: 0.1; transform-origin: 281.365px 216.255px;" class="animable"></rect></g><path d="M312.19,92.46H436.27a0,0,0,0,1,0,0V264a4.58,4.58,0,0,1-4.58,4.58H316.77a4.58,4.58,0,0,1-4.58-4.58V92.46a0,0,0,0,1,0,0Z" style="fill: rgb(255, 255, 255); transform-origin: 374.23px 180.52px;" id="elm9mg992kmah" class="animable"></path><g id="el5td3c7vopzw"><rect x="250.54" y="83.11" width="188.86" height="9.35" style="opacity: 0.3; transform-origin: 344.97px 87.785px;" class="animable"></rect></g><g id="el3uq3po5gaj4"><circle cx="257.9" cy="87.79" r="1.9" style="fill: rgb(64, 123, 255); opacity: 0.8; transform-origin: 257.9px 87.79px;" class="animable"></circle></g><g id="el0t0c8wiuitu"><circle cx="266.57" cy="87.79" r="1.9" style="fill: rgb(64, 123, 255); opacity: 0.8; transform-origin: 266.57px 87.79px;" class="animable"></circle></g><g id="elvnmgf4n6ld"><circle cx="275.23" cy="87.79" r="1.9" style="fill: rgb(64, 123, 255); opacity: 0.8; transform-origin: 275.23px 87.79px;" class="animable"></circle></g><g id="el8o4mterbcmr"><rect x="321.77" y="110.09" width="78.01" height="62.54" rx="2.85" style="fill: rgb(64, 123, 255); opacity: 0.2; transform-origin: 360.775px 141.36px;" class="animable"></rect></g><g id="elumvap6s3x1"><rect x="368.9" y="105.12" width="59.92" height="48.04" rx="2.19" style="fill: rgb(64, 123, 255); opacity: 0.2; transform-origin: 398.86px 129.14px;" class="animable"></rect></g><g id="elinqmryorab"><rect x="337.83" y="192.81" width="59.92" height="48.04" rx="2.19" style="fill: rgb(64, 123, 255); opacity: 0.2; transform-origin: 367.79px 216.83px;" class="animable"></rect></g><g id="ellvdea2dnwxf"><rect x="250.54" y="83.11" width="188.86" height="187.92" style="fill: rgb(255, 255, 255); opacity: 0.7; transform-origin: 344.97px 177.07px;" class="animable"></rect></g><rect x="233.2" y="100.45" width="188.86" height="187.92" style="fill: rgb(64, 123, 255); transform-origin: 327.63px 194.41px;" id="el08fjcjtcn16p" class="animable"></rect><g id="elevk2moudda"><rect x="233.2" y="109.8" width="61.65" height="35.37" style="opacity: 0.1; transform-origin: 264.025px 127.485px;" class="animable"></rect></g><g id="el4ardwsrip0q"><rect x="233.2" y="180.53" width="61.65" height="35.37" style="opacity: 0.2; transform-origin: 264.025px 198.215px;" class="animable"></rect></g><g id="elsomlrohztq"><rect x="233.2" y="215.9" width="61.65" height="35.37" style="opacity: 0.1; transform-origin: 264.025px 233.585px;" class="animable"></rect></g><path d="M294.85,109.8H418.93a0,0,0,0,1,0,0V281.33a4.58,4.58,0,0,1-4.58,4.58H299.44a4.58,4.58,0,0,1-4.58-4.58V109.8A0,0,0,0,1,294.85,109.8Z" style="fill: rgb(255, 255, 255); transform-origin: 356.89px 197.855px;" id="el27ki01oviph" class="animable"></path><g id="elhm99kbcemhc"><rect x="233.2" y="100.45" width="188.86" height="9.35" style="opacity: 0.3; transform-origin: 327.63px 105.125px;" class="animable"></rect></g><g id="elj6y4rvdwpi"><circle cx="240.56" cy="105.12" r="1.9" style="fill: rgb(64, 123, 255); opacity: 0.8; transform-origin: 240.56px 105.12px;" class="animable"></circle></g><g id="el8nzxm2smwz5"><circle cx="249.23" cy="105.12" r="1.9" style="fill: rgb(64, 123, 255); opacity: 0.8; transform-origin: 249.23px 105.12px;" class="animable"></circle></g><g id="el3ztqd7lr5hm"><circle cx="257.9" cy="105.12" r="1.9" style="fill: rgb(64, 123, 255); opacity: 0.8; transform-origin: 257.9px 105.12px;" class="animable"></circle></g><g id="elc8w1cr1q9oo"><rect x="304.44" y="127.43" width="78.01" height="62.54" rx="2.85" style="fill: rgb(64, 123, 255); opacity: 0.2; transform-origin: 343.445px 158.7px;" class="animable"></rect></g><g id="el9g97d8r72bl"><rect x="352.48" y="176.84" width="59.92" height="48.04" rx="2.19" style="fill: rgb(64, 123, 255); opacity: 0.2; transform-origin: 382.44px 200.86px;" class="animable"></rect></g><g id="elzlsaekm44oo"><rect x="320.5" y="210.15" width="59.92" height="48.04" rx="2.19" style="fill: rgb(64, 123, 255); opacity: 0.2; transform-origin: 350.46px 234.17px;" class="animable"></rect></g><g id="elvlev29664o"><rect x="233.2" y="100.45" width="188.86" height="187.92" style="fill: rgb(255, 255, 255); opacity: 0.5; transform-origin: 327.63px 194.41px;" class="animable"></rect></g><rect x="215.87" y="117.78" width="188.86" height="187.92" style="fill: rgb(64, 123, 255); transform-origin: 310.3px 211.74px;" id="el47invnckf4m" class="animable"></rect><g id="elu349gfwzm6e"><rect x="215.87" y="127.13" width="61.65" height="35.37" style="opacity: 0.1; transform-origin: 246.695px 144.815px;" class="animable"></rect></g><g id="el116uiv0l54ba"><rect x="215.87" y="197.87" width="61.65" height="35.37" style="opacity: 0.2; transform-origin: 246.695px 215.555px;" class="animable"></rect></g><g id="el4ur286fwp1t"><rect x="215.87" y="233.24" width="61.65" height="35.37" style="opacity: 0.1; transform-origin: 246.695px 250.925px;" class="animable"></rect></g><path d="M277.52,127.13H401.6a0,0,0,0,1,0,0V298.67a4.58,4.58,0,0,1-4.58,4.58H282.1a4.58,4.58,0,0,1-4.58-4.58V127.13A0,0,0,0,1,277.52,127.13Z" style="fill: rgb(255, 255, 255); transform-origin: 339.56px 215.19px;" id="el3hbx1pty0es" class="animable"></path><g id="eltr7slyykcn"><rect x="215.87" y="117.78" width="188.86" height="9.35" style="opacity: 0.3; transform-origin: 310.3px 122.455px;" class="animable"></rect></g><g id="eljhh30llegl"><circle cx="223.23" cy="122.46" r="1.9" style="fill: rgb(64, 123, 255); opacity: 0.8; transform-origin: 223.23px 122.46px;" class="animable"></circle></g><g id="el0s4xefecwsda"><path d="M233.8,122.46a1.91,1.91,0,1,1-1.91-1.9A1.9,1.9,0,0,1,233.8,122.46Z" style="fill: rgb(64, 123, 255); opacity: 0.8; transform-origin: 231.89px 122.47px;" class="animable"></path></g><g id="el3aswdjv2zbt"><circle cx="240.56" cy="122.46" r="1.9" style="fill: rgb(64, 123, 255); opacity: 0.8; transform-origin: 240.56px 122.46px;" class="animable"></circle></g><g id="el5mvreklj29t"><rect x="205.42" y="113.17" width="117.21" height="93.97" rx="4.28" style="fill: rgb(64, 123, 255); opacity: 0.2; transform-origin: 264.025px 160.155px;" class="animable"></rect></g><g id="elo3f28uo3dpm"><rect x="290.38" y="159.08" width="90.03" height="72.18" rx="3.29" style="fill: rgb(64, 123, 255); opacity: 0.2; transform-origin: 335.395px 195.17px;" class="animable"></rect></g><g id="ell6pc2zezok"><rect x="320.5" y="248.23" width="90.03" height="72.18" rx="3.29" style="fill: rgb(64, 123, 255); opacity: 0.2; transform-origin: 365.515px 284.32px;" class="animable"></rect></g></g><g id="freepik--Character--inject-3" class="animable" style="transform-origin: 187.182px 259.5px;"><path d="M160.35,168.16l-7.26,15.23c-2.4,5.08-4.75,10.19-6.84,15.25l-.75,1.89c-.11.29-.14.35-.22.6s-.14.45-.2.73a33,33,0,0,0-.59,3.62c-.28,2.61-.44,5.37-.54,8.14-.2,5.55-.25,11.24-.32,16.87l-5.48.61a144.32,144.32,0,0,1-2.72-17.23,84.29,84.29,0,0,1-.42-9,36.72,36.72,0,0,1,.34-4.86c.05-.42.15-.9.25-1.36s.27-1.07.38-1.45l.69-2.13c1.87-5.63,4.05-11,6.34-16.29s4.74-10.48,7.38-15.65Z" style="fill: rgb(255, 195, 189); transform-origin: 147.679px 197.115px;" id="el7wpikkj9tov" class="animable"></path><path d="M143.55,228.77l2.56,4.79-8.17,2.28s-1.56-3.85.29-6.88Z" style="fill: rgb(255, 195, 189); transform-origin: 141.718px 232.305px;" id="el2kw6qeif68e" class="animable"></path><polygon points="149.25 240.47 141.73 241.06 137.94 235.84 146.11 233.56 149.25 240.47" style="fill: rgb(255, 195, 189); transform-origin: 143.595px 237.31px;" id="el6dp2k50mvvw" class="animable"></polygon><path d="M184.82,128.62c.12.58.52,1,.9.91s.59-.61.48-1.19-.52-1-.9-.91S184.7,128,184.82,128.62Z" style="fill: rgb(38, 50, 56); transform-origin: 185.508px 128.48px;" id="elv8wzwceasej" class="animable"></path><path d="M185.29,129.62a21.21,21.21,0,0,0,3.78,4.4,3.4,3.4,0,0,1-2.66,1.09Z" style="fill: rgb(237, 132, 126); transform-origin: 187.18px 132.367px;" id="el3k3h0wmm844" class="animable"></path><path d="M182,125.83a.38.38,0,0,0,.26-.11,2.75,2.75,0,0,1,2.33-.94.35.35,0,0,0,.12-.69,3.46,3.46,0,0,0-3,1.15.35.35,0,0,0,.25.59Z" style="fill: rgb(38, 50, 56); transform-origin: 183.307px 124.948px;" id="elrre08j5ata9" class="animable"></path><path d="M168.28,136.79c1.05,5.37,2.11,15.22-1.65,18.8,0,0,1.47,5.46,11.45,5.46,11,0,5.25-5.45,5.25-5.45-6-1.44-5.84-5.88-4.8-10.06Z" style="fill: rgb(255, 195, 189); transform-origin: 175.731px 148.92px;" id="elgjwgdmqncc" class="animable"></path><path d="M164.13,157.5c-.87-1.56-1.84-3.34.16-3.89,2.19-.62,14.22-1.24,18.37-.09s3,4.3,3,4.3Z" style="fill: rgb(38, 50, 56); transform-origin: 174.46px 155.348px;" id="elzgq4vx7kcza" class="animable"></path><path d="M133.11,401.38a2.41,2.41,0,0,0,1.81-.29.73.73,0,0,0,.08-.83.82.82,0,0,0-.5-.46c-1-.37-3.2.8-3.3.85a.17.17,0,0,0-.09.16.17.17,0,0,0,.12.15A9.78,9.78,0,0,0,133.11,401.38Zm1.07-1.3.21.05a.46.46,0,0,1,.29.27c.13.3,0,.41,0,.45-.36.37-1.85.22-2.92-.09A5.72,5.72,0,0,1,134.18,400.08Z" style="fill: rgb(64, 123, 255); transform-origin: 133.102px 400.586px;" id="elswvxjpargg" class="animable"></path><path d="M131.27,401a.11.11,0,0,0,.08,0c.8-.33,2.44-1.77,2.37-2.6a.56.56,0,0,0-.5-.51.91.91,0,0,0-.76.14c-.92.6-1.33,2.69-1.34,2.78a.17.17,0,0,0,.06.16A.11.11,0,0,0,131.27,401Zm1.67-2.57.07,0c.22.07.22.17.22.22,0,.49-1.14,1.52-2,1.94a4.13,4.13,0,0,1,1.27-2.1A.58.58,0,0,1,132.94,398.4Z" style="fill: rgb(64, 123, 255); transform-origin: 132.42px 399.434px;" id="el6rqqhivi6e9" class="animable"></path><path d="M186.17,408.38c.94,0,1.85-.13,2.15-.56a.64.64,0,0,0,0-.76.9.9,0,0,0-.55-.41c-1.22-.33-3.79,1.14-3.9,1.2a.17.17,0,0,0,0,.32A13.25,13.25,0,0,0,186.17,408.38Zm1.16-1.43a1.22,1.22,0,0,1,.34,0,.51.51,0,0,1,.34.24c.12.22.08.33,0,.39-.34.47-2.2.48-3.56.29A7.82,7.82,0,0,1,187.33,407Z" style="fill: rgb(64, 123, 255); transform-origin: 186.101px 407.491px;" id="elll7trbq9szh" class="animable"></path><path d="M184,408.17H184c.88-.4,2.64-2,2.51-2.82,0-.19-.17-.44-.65-.49a1.33,1.33,0,0,0-1,.3c-.93.77-1.13,2.75-1.14,2.83a.2.2,0,0,0,.07.16A.23.23,0,0,0,184,408.17Zm1.79-3h.1c.32,0,.34.16.34.2.08.49-1.11,1.74-2,2.29a4.15,4.15,0,0,1,1-2.27A1,1,0,0,1,185.74,405.19Z" style="fill: rgb(64, 123, 255); transform-origin: 185.118px 406.519px;" id="el2fftk25ci26" class="animable"></path><polygon points="175.87 408 183.22 408 183.95 390.99 176.6 390.99 175.87 408" style="fill: rgb(255, 195, 189); transform-origin: 179.91px 399.495px;" id="el3g53ko0gxhj" class="animable"></polygon><polygon points="122.92 399.89 130.22 400.68 135.73 384.17 128.43 383.38 122.92 399.89" style="fill: rgb(255, 195, 189); transform-origin: 129.325px 392.03px;" id="el7t9tzrqbqwy" class="animable"></polygon><path d="M130.83,399.89l-8.2-.89a.65.65,0,0,0-.68.43l-2.14,6.34a1.07,1.07,0,0,0,.92,1.41c2.87.27,4.28.25,7.89.64,2.22.24,6.77,1,9.84,1.3s3.79-2.65,2.57-3.06c-5.5-1.84-7.43-3.77-9.06-5.59A1.82,1.82,0,0,0,130.83,399.89Z" style="fill: rgb(38, 50, 56); transform-origin: 130.673px 404.069px;" id="eljbm0bp2l48g" class="animable"></path><path d="M183.17,407.15h-8a.63.63,0,0,0-.62.5l-1.45,6.53a1.07,1.07,0,0,0,1.05,1.31c2.9-.05,7.08-.22,10.72-.22,4.25,0,7.92.23,12.91.23,3,0,3.85-3.05,2.59-3.33-5.75-1.25-10.44-1.39-15.4-4.45A3.44,3.44,0,0,0,183.17,407.15Z" style="fill: rgb(38, 50, 56); transform-origin: 187.003px 411.325px;" id="elckplbkbx1es" class="animable"></path><path d="M194.12,159.35c2.08.65,4.41,1.36,6.64,2s4.52,1.19,6.79,1.68A79.27,79.27,0,0,0,221,165c1.08,0,2.15.07,3.18,0l.63,0c.13,0,.35,0,.53-.05.4-.06.86-.16,1.34-.28a50.28,50.28,0,0,0,6.25-2.17c4.3-1.76,8.71-3.82,13.07-5.81l3.05,4.59a86.83,86.83,0,0,1-12.18,9,45.76,45.76,0,0,1-7.17,3.64,19.21,19.21,0,0,1-2.18.72c-.42.1-.8.2-1.27.28l-.67.11-.52.06c-1.4.18-2.77.25-4.13.29a75.29,75.29,0,0,1-15.61-1.5c-2.51-.5-5-1-7.45-1.72s-4.83-1.35-7.38-2.27Z" style="fill: rgb(255, 195, 189); transform-origin: 219.77px 166.036px;" id="elpx7b65jxbd" class="animable"></path><path d="M153.47,157.26c-6.88,1.57-13.84,21.71-13.84,21.71l14.17,10.16s4-9.37,7.85-17.57C165.73,163,160.51,155.64,153.47,157.26Z" style="fill: rgb(64, 123, 255); transform-origin: 151.357px 173.082px;" id="elpo22sfrbup" class="animable"></path><g id="elxq0uqyhcf4"><path d="M153.47,157.26c-6.88,1.57-13.84,21.71-13.84,21.71l14.17,10.16s4-9.37,7.85-17.57C165.73,163,160.51,155.64,153.47,157.26Z" style="opacity: 0.3; transform-origin: 151.357px 173.082px;" class="animable"></path></g><path d="M194.63,157.63s7.82,8.84.43,63.5H155.77c-.27-6,3.52-35.45-2.3-63.87a101.9,101.9,0,0,1,13.16-1.67,143,143,0,0,1,16.7,0A74.19,74.19,0,0,1,194.63,157.63Z" style="fill: rgb(64, 123, 255); transform-origin: 175.853px 188.238px;" id="el0qx90yz37k5e" class="animable"></path><g id="el78vkwg1oz2x"><path d="M194.63,157.63s7.82,8.84.43,63.5H155.77c-.27-6,3.52-35.45-2.3-63.87a101.9,101.9,0,0,1,13.16-1.67,143,143,0,0,1,16.7,0A74.19,74.19,0,0,1,194.63,157.63Z" style="opacity: 0.3; transform-origin: 175.853px 188.238px;" class="animable"></path></g><g id="el39mhk82uqrm"><path d="M194.63,157.63s-.88-.24-2.31-.57c-4.32.45-6.42,5.42-5.26,10.58.86,3.84,6.44,9.09,11.18,13C198.13,161.59,194.63,157.63,194.63,157.63Z" style="opacity: 0.3; transform-origin: 192.492px 168.85px;" class="animable"></path></g><path d="M185,168.91c3.51,6.08,22.7,12,22.7,12l6.44-17.26s-11-3-19.53-6C184.06,153.86,181.17,162.23,185,168.91Z" style="fill: rgb(64, 123, 255); transform-origin: 198.762px 168.807px;" id="ele63m2tt4bqn" class="animable"></path><g id="eli1grqe1n1q"><path d="M185,168.91c3.51,6.08,22.7,12,22.7,12l6.44-17.26s-11-3-19.53-6C184.06,153.86,181.17,162.23,185,168.91Z" style="opacity: 0.3; transform-origin: 198.762px 168.807px;" class="animable"></path></g><path d="M244.75,158.36l1.22-7.65,6.78,1.94s1,6.81-3.94,8.82Z" style="fill: rgb(255, 195, 189); transform-origin: 248.792px 156.09px;" id="el2k6pqssekmj" class="animable"></path><polygon points="248.89 143.96 254.61 148.77 252.75 152.65 245.97 150.71 248.89 143.96" style="fill: rgb(255, 195, 189); transform-origin: 250.29px 148.305px;" id="elxhjtvv0z9de" class="animable"></polygon><g id="elikw6mvbuu9a"><polygon points="183.94 390.99 183.57 399.76 176.22 399.76 176.59 390.99 183.94 390.99" style="opacity: 0.2; transform-origin: 180.08px 395.375px;" class="animable"></polygon></g><g id="elx8z7d0nxn5"><polygon points="128.43 383.38 135.73 384.18 132.89 392.69 125.58 391.89 128.43 383.38" style="opacity: 0.2; transform-origin: 130.655px 388.035px;" class="animable"></polygon></g><path d="M165.2,131.32c1.89,7.05,2.64,11.27,7,14.19,6.54,4.41,14.68-.65,14.93-8.11.23-6.72-2.89-17.11-10.45-18.53A10,10,0,0,0,165.2,131.32Z" style="fill: rgb(255, 195, 189); transform-origin: 175.996px 132.928px;" id="el0s3ecohb5eq" class="animable"></path><path d="M181.77,110.14a3.19,3.19,0,0,1-1.42,2.36c-.33-3.7-1.8-7.26-5.09-9,.54,1.57-1,4.06-3.26,6.6a7,7,0,0,0-3.5-4.37c-1.5,5.81-6.3,6.77-10.11,10.35a5.77,5.77,0,0,0-1.27,6.36c-1-.45-2.19-.34-3.05,1.9a5.51,5.51,0,0,1,2.75-.85c-.68.64-1.21,1.75-.82,4.25.68,4.23,9.37,16.8,14.86,16.17,6-.69,7.1-7.64,7.24-13.91l.23-.12C182.49,127.67,187.63,115.85,181.77,110.14Z" style="fill: rgb(38, 50, 56); transform-origin: 169.24px 123.716px;" id="el7z60ius937m" class="animable"></path><path d="M175.25,131.44a8.27,8.27,0,0,0,3.62,3.86c2.12,1.1,3.3-.51,2.83-2.62-.43-1.91-2-4.77-4.23-5S174.37,129.44,175.25,131.44Z" style="fill: rgb(255, 195, 189); transform-origin: 178.357px 131.659px;" id="elbd1dl71axul" class="animable"></path><path d="M181.13,221.13s-8.34,56.14-12.92,77.18c-5,23-31.37,93.55-31.37,93.55l-13.23-2.43s19.7-66.23,22.56-89c3.11-24.75,9.6-79.26,9.6-79.26Z" style="fill: rgb(64, 123, 255); transform-origin: 152.37px 306.495px;" id="eloqa1pa3867" class="animable"></path><g id="eld7u99yrwxp"><path d="M175.86,241.13c-9.64,1.89-8.62,37.84-7.46,56.33,2.78-13.07,6.85-38.22,9.63-56.07A3.29,3.29,0,0,0,175.86,241.13Z" style="opacity: 0.2; transform-origin: 172.852px 269.256px;" class="animable"></path></g><path d="M195.06,221.13s1,54.93.22,77.33c-.83,23.3-9,99.6-9,99.6H173.86s-.46-74.94-1-97.82c-.6-24.95-3.62-79.11-3.62-79.11Z" style="fill: rgb(64, 123, 255); transform-origin: 182.409px 309.595px;" id="elb9m0mcgf0d" class="animable"></path><g id="elj7ttrpb6hwc"><path d="M184.21,389.05l-.54-.06c2.19-21.11,7.37-72.19,8-90.5.67-18.76.06-60.68-.14-73.08l.54-.06c.2,12.4.81,54.34.14,73.13C191.58,316.82,186.4,367.93,184.21,389.05Z" style="opacity: 0.2; transform-origin: 188.093px 307.2px;" class="animable"></path></g><path d="M139.85,387.38c.06,0-2.3,4.83-2.3,4.83l-14.89-2.74,1.11-4.49Z" style="fill: rgb(64, 123, 255); transform-origin: 131.256px 388.595px;" id="ell0pvz8a5w9l" class="animable"></path><g id="eloo25ubjptw"><path d="M139.85,387.38c.06,0-2.3,4.83-2.3,4.83l-14.89-2.74,1.11-4.49Z" style="opacity: 0.5; transform-origin: 131.256px 388.595px;" class="animable"></path></g><path d="M188.7,393.1c.06,0-.7,5.17-.7,5.17H172.86l-.41-4.61Z" style="fill: rgb(64, 123, 255); transform-origin: 180.577px 395.685px;" id="elr5im9dw4r4j" class="animable"></path><g id="ela8jaq9vt09j"><path d="M188.7,393.1c.06,0-.7,5.17-.7,5.17H172.86l-.41-4.61Z" style="opacity: 0.5; transform-origin: 180.577px 395.685px;" class="animable"></path></g></g><defs>     <filter id="active" height="200%">         <feMorphology in="SourceAlpha" result="DILATED" operator="dilate" radius="2"></feMorphology>                <feFlood flood-color="#32DFEC" flood-opacity="1" result="PINK"></feFlood>        <feComposite in="PINK" in2="DILATED" operator="in" result="OUTLINE"></feComposite>        <feMerge>            <feMergeNode in="OUTLINE"></feMergeNode>            <feMergeNode in="SourceGraphic"></feMergeNode>        </feMerge>    </filter>    <filter id="hover" height="200%">        <feMorphology in="SourceAlpha" result="DILATED" operator="dilate" radius="2"></feMorphology>                <feFlood flood-color="#ff0000" flood-opacity="0.5" result="PINK"></feFlood>        <feComposite in="PINK" in2="DILATED" operator="in" result="OUTLINE"></feComposite>        <feMerge>            <feMergeNode in="OUTLINE"></feMergeNode>            <feMergeNode in="SourceGraphic"></feMergeNode>        </feMerge>            <feColorMatrix type="matrix" values="0   0   0   0   0                0   1   0   0   0                0   0   0   0   0                0   0   0   1   0 "></feColorMatrix>    </filter></defs></svg>